<svg width="27" height="21" viewBox="0 0 27 21" fill="none" xmlns="http://www.w3.org/2000/svg">
<path d="M4.99336 1.27254C8.64241 1.09085 11.4804 1 13.508 1C15.5357 1 18.375 1.09085 22.026 1.2732C22.9814 1.32089 23.887 1.71366 24.5747 2.37859C25.2624 3.04353 25.6855 3.93543 25.7653 4.88868C25.9325 6.88602 26.0161 8.64504 26.0161 10.1664C26.0161 11.7062 25.9305 13.4896 25.7593 15.5172C25.6799 16.4595 25.265 17.3421 24.59 18.0044C23.9151 18.6668 23.0249 19.065 22.0813 19.1268C18.9602 19.3309 16.1025 19.4329 13.508 19.4329C10.9143 19.4329 8.05717 19.3309 4.93806 19.1268C3.99473 19.0651 3.10482 18.6671 2.42993 18.0052C1.75504 17.3432 1.33995 16.4612 1.26004 15.5192C1.0869 13.4764 1 11.6917 1 10.1664C1 8.65887 1.08492 6.89919 1.25345 4.88671C1.33356 3.93369 1.75671 3.0421 2.44438 2.37744C3.13204 1.71278 4.03751 1.32019 4.9927 1.27254H4.99336Z" stroke="#FEB801" stroke-width="1.65814" stroke-linejoin="round"/>
<path d="M11.5344 7.32641V13.117C11.5344 13.219 11.562 13.319 11.6143 13.4066C11.6666 13.4941 11.7416 13.5658 11.8315 13.6141C11.9213 13.6624 12.0225 13.6855 12.1244 13.6808C12.2262 13.6761 12.3249 13.644 12.41 13.5877L16.7529 10.7174C16.8305 10.6662 16.8943 10.5967 16.9385 10.5149C16.9828 10.4332 17.0062 10.3417 17.0065 10.2488C17.0069 10.1558 16.9843 10.0642 16.9408 9.98203C16.8972 9.8999 16.834 9.82981 16.7569 9.77799L12.4133 6.85769C12.3284 6.80064 12.2296 6.76775 12.1275 6.76252C12.0253 6.75729 11.9237 6.77992 11.8334 6.828C11.7431 6.87608 11.6676 6.94779 11.615 7.03546C11.5623 7.12314 11.5345 7.22348 11.5344 7.32575V7.32641Z" stroke="#FEB801" stroke-width="1.42144" stroke-linejoin="round"/>
</svg>
