<svg width="25" height="25" viewBox="0 0 25 25" fill="none" xmlns="http://www.w3.org/2000/svg">
<path d="M7.2499 0H17.7498C21.7497 0 24.9997 3.24996 24.9997 7.2499V17.7498C24.9997 19.6726 24.2358 21.5166 22.8762 22.8762C21.5166 24.2358 19.6726 24.9997 17.7498 24.9997H7.2499C3.24996 24.9997 0 21.7497 0 17.7498V7.2499C0 5.32711 0.763827 3.48307 2.12345 2.12345C3.48307 0.763827 5.32711 0 7.2499 0ZM6.99991 2.49997C5.80645 2.49997 4.66187 2.97407 3.81797 3.81797C2.97407 4.66187 2.49997 5.80645 2.49997 6.99991V17.9998C2.49997 20.4872 4.51244 22.4997 6.99991 22.4997H17.9998C19.1932 22.4997 20.3378 22.0256 21.1817 21.1817C22.0256 20.3378 22.4997 19.1932 22.4997 17.9998V6.99991C22.4997 4.51244 20.4872 2.49997 17.9998 2.49997H6.99991ZM19.0622 4.37494C19.4766 4.37494 19.8741 4.53956 20.1671 4.83258C20.4601 5.1256 20.6247 5.52303 20.6247 5.93742C20.6247 6.35182 20.4601 6.74924 20.1671 7.04226C19.8741 7.33528 19.4766 7.4999 19.0622 7.4999C18.6479 7.4999 18.2504 7.33528 17.9574 7.04226C17.6644 6.74924 17.4998 6.35182 17.4998 5.93742C17.4998 5.52303 17.6644 5.1256 17.9574 4.83258C18.2504 4.53956 18.6479 4.37494 19.0622 4.37494ZM12.4998 6.24992C14.1574 6.24992 15.7471 6.90839 16.9192 8.08048C18.0913 9.25256 18.7498 10.8423 18.7498 12.4998C18.7498 14.1574 18.0913 15.7471 16.9192 16.9192C15.7471 18.0913 14.1574 18.7498 12.4998 18.7498C10.8423 18.7498 9.25256 18.0913 8.08048 16.9192C6.90839 15.7471 6.24992 14.1574 6.24992 12.4998C6.24992 10.8423 6.90839 9.25256 8.08048 8.08048C9.25256 6.90839 10.8423 6.24992 12.4998 6.24992ZM12.4998 8.74988C11.5053 8.74988 10.5515 9.14497 9.84822 9.84822C9.14497 10.5515 8.74988 11.5053 8.74988 12.4998C8.74988 13.4944 9.14497 14.4482 9.84822 15.1515C10.5515 15.8547 11.5053 16.2498 12.4998 16.2498C13.4944 16.2498 14.4482 15.8547 15.1515 15.1515C15.8547 14.4482 16.2498 13.4944 16.2498 12.4998C16.2498 11.5053 15.8547 10.5515 15.1515 9.84822C14.4482 9.14497 13.4944 8.74988 12.4998 8.74988Z" fill="#FEB801"/>
</svg>
