<svg width="22" height="25" viewBox="0 0 22 25" fill="none" xmlns="http://www.w3.org/2000/svg">
<path d="M17.0712 11.5863C16.9606 11.5348 16.8491 11.4855 16.7365 11.4384C16.5399 7.88219 14.5584 5.8468 11.2306 5.82597H11.186C9.19593 5.82597 7.54056 6.65929 6.52162 8.17489L8.35124 9.40509C9.11199 8.27281 10.3062 8.03219 11.1871 8.03219H11.2168C12.3122 8.03844 13.1399 8.35093 13.6744 8.95926C14.0643 9.403 14.3246 10.0165 14.4532 10.7894C13.4139 10.624 12.3589 10.574 11.3082 10.6405C8.14512 10.8197 6.11043 12.629 6.2475 15.1425C6.31656 16.4165 6.96468 17.5144 8.07181 18.23C9.00681 18.8362 10.2127 19.132 11.4654 19.0654C13.1208 18.9768 14.4192 18.3571 15.3244 17.2258C16.0119 16.3665 16.4464 15.2529 16.6387 13.8498C17.4271 14.3165 18.0115 14.93 18.3345 15.6675C18.8827 16.9227 18.9146 18.9841 17.1997 20.6643C15.6963 22.1372 13.889 22.7737 11.1584 22.7935C8.12918 22.7726 5.83737 21.8195 4.34775 19.9633C2.95269 18.2237 2.23231 15.7133 2.20575 12.4998C2.23231 9.28634 2.95269 6.77491 4.34775 5.03639C5.83737 3.18017 8.12812 2.2281 11.1584 2.20622C14.2088 2.22705 16.5399 3.18537 18.0869 5.04993C18.8456 5.96555 19.4172 7.11553 19.7944 8.45614L21.9385 7.89573C21.4816 6.24471 20.7623 4.82285 19.7848 3.64266C17.8022 1.24998 14.9016 0.0249997 11.1658 0H11.1509C7.42156 0.0249997 4.55493 1.25519 2.62862 3.6562C0.91375 5.79159 0.02975 8.76447 0 12.4915V12.5082C0.02975 16.2352 0.91375 19.207 2.62862 21.3435C4.55493 23.7445 7.42156 24.9747 11.1499 24.9997H11.1658C14.4808 24.9768 16.8172 24.1268 18.7414 22.2403C21.2606 19.7737 21.1852 16.6821 20.3543 14.7842C19.7593 13.4227 18.6235 12.3175 17.0712 11.5863ZM11.3475 16.8623C9.96093 16.9394 8.52125 16.329 8.44899 15.0227C8.39587 14.054 9.15237 12.9717 11.4325 12.8436C11.6939 12.828 11.9499 12.8217 12.2017 12.8217C13.0305 12.8217 13.804 12.8998 14.5084 13.0509C14.246 16.2675 12.7054 16.7894 11.3475 16.8623Z" fill="#FEB801"/>
</svg>
